HIERARCHY
ROOT Hips
{
	OFFSET 228.634003 92.561920 -263.051910
	CHANNELS 6 Xposition Yposition Zposition Zrotation Yrotation Xrotation 
	JOINT LeftUpLeg
	{
		OFFSET 0.103458 1.857820 10.548502
		CHANNELS 3 Zrotation Yrotation Xrotation
		JOINT LeftLeg
		{
			OFFSET 43.500000 -0.000023 -0.000011
			CHANNELS 3 Zrotation Yrotation Xrotation
			JOINT LeftFoot
			{
				OFFSET 42.372192 0.000038 0.000002
				CHANNELS 3 Zrotation Yrotation Xrotation
				JOINT LeftToe
				{
					OFFSET 17.299992 -0.000004 0.000006
					CHANNELS 3 Zrotation Yrotation Xrotation
					End Site
					{
						OFFSET 0.000000 0.000000 0.000000
					}
				}
			}
		}
	}
	JOINT RightUpLeg
	{
		OFFSET 0.103461 1.857814 -10.548508
		CHANNELS 3 Zrotation Yrotation Xrotation
		JOINT RightLeg
		{
			OFFSET 43.500042 -0.000015 0.000008
			CHANNELS 3 Zrotation Yrotation Xrotation
			JOINT RightFoot
			{
				OFFSET 42.372253 0.000008 0.000006
				CHANNELS 3 Zrotation Yrotation Xrotation
				JOINT RightToe
				{
					OFFSET 17.299973 -0.000014 0.000011
					CHANNELS 3 Zrotation Yrotation Xrotation
					End Site
					{
						OFFSET 0.000000 0.000000 0.000000
					}
				}
			}
		}
	}
	JOINT Spine
	{
		OFFSET 6.901966 -2.603737 -0.000007
		CHANNELS 3 Zrotation Yrotation Xrotation
		JOINT Spine1
		{
			OFFSET 12.588102 0.000017 0.000001
			CHANNELS 3 Zrotation Yrotation Xrotation
			JOINT Spine2
			{
				OFFSET 12.343197 -0.000013 0.000000
				CHANNELS 3 Zrotation Yrotation Xrotation
				JOINT Neck
				{
					OFFSET 25.832905 -0.000008 0.000000
					CHANNELS 3 Zrotation Yrotation Xrotation
					JOINT Head
					{
						OFFSET 11.766610 0.000009 -0.000002
						CHANNELS 3 Zrotation Yrotation Xrotation
						End Site
						{
							OFFSET 0.000000 0.000000 0.000000
						}
					}
				}
				JOINT LeftShoulder
				{
					OFFSET 19.745903 -1.480377 6.000115
					CHANNELS 3 Zrotation Yrotation Xrotation
					JOINT LeftArm
					{
						OFFSET 11.284125 -0.000014 -0.000024
						CHANNELS 3 Zrotation Yrotation Xrotation
						JOINT LeftForeArm
						{
							OFFSET 33.000046 -0.000012 0.000029
							CHANNELS 3 Zrotation Yrotation Xrotation
							JOINT LeftHand
							{
								OFFSET 25.199989 0.000034 0.000012
								CHANNELS 3 Zrotation Yrotation Xrotation
								End Site
								{
									OFFSET 0.000000 0.000000 0.000000
								}
							}
						}
					}
				}
				JOINT RightShoulder
				{
					OFFSET 19.746098 -1.480362 -6.000071
					CHANNELS 3 Zrotation Yrotation Xrotation
					JOINT RightArm
					{
						OFFSET 11.284137 -0.000006 -0.000008
						CHANNELS 3 Zrotation Yrotation Xrotation
						JOINT RightForeArm
						{
							OFFSET 33.000095 0.000017 0.000000
							CHANNELS 3 Zrotation Yrotation Xrotation
							JOINT RightHand
							{
								OFFSET 25.199778 0.000144 0.000423
								CHANNELS 3 Zrotation Yrotation Xrotation
								End Site
								{
									OFFSET 0.000000 0.000000 0.000000
								}
							}
						}
					}
				}
			}
		}
	}
}
MOTION
Frames: 7
Frame Time: 0.033333
10.547840 84.730263 -106.935600 100.686790 -38.805020 76.405863 109.875047 -2.065983 157.685599 -48.417514 -6.540821 -9.058775 85.888973 7.766220 7.439585 21.454555 0.003092 -0.000001 160.550235 10.551102 -172.997558 -43.937101 1.292311 14.254096 68.724271 -6.718582 10.606257 21.454565 -0.003108 -0.000015 15.761355 -2.453621 0.340459 21.525059 -4.927558 0.218249 21.205683 -4.926022 0.248090 -10.332061 -16.502143 -4.436178 -28.666768 11.577558 -14.798527 73.621291 -79.510464 105.411464 -45.895979 0.601476 19.136710 -29.586604 -14.063943 1.161663 7.470761 1.811709 51.980502 76.638807 73.987997 -102.896759 -40.117099 -1.051373 -0.287916 -32.228613 17.701576 -1.474501 4.706598 8.281882 -15.897711 
10.749560 86.267838 -105.700600 98.829982 -36.313520 78.571429 115.975915 -0.291198 158.318293 -43.114521 -6.293810 -8.778058 84.557721 7.718186 7.658909 21.454551 0.003095 0.000003 157.223428 10.005901 -173.922926 -50.642806 0.005576 14.976148 70.370346 -7.693896 9.440986 21.454555 -0.003103 -0.000025 15.724634 -2.222802 0.410853 21.444902 -4.483052 0.402531 21.125751 -4.480407 0.429670 -10.480511 -14.947422 -4.595984 -28.323553 10.686055 -14.061862 78.812105 -80.888831 100.166418 -42.339977 6.094623 20.714900 -29.692939 -12.761932 1.079801 4.401291 0.266768 43.540414 78.488559 74.469163 -101.038032 -40.221744 -4.682173 -0.629868 -33.146071 18.015580 -1.514580 4.090794 7.991850 -17.425098 
10.987590 87.597862 -104.284103 97.073087 -33.483862 80.665142 122.433955 1.208808 158.390202 -38.076840 -5.888753 -8.087625 83.192175 7.416190 7.979546 21.454551 0.003082 -0.000002 153.674147 9.391300 -175.776366 -56.947303 -0.980887 14.844221 72.177696 -7.936564 8.574417 21.454560 -0.003114 -0.000020 15.682801 -1.890013 0.483870 21.354417 -3.836715 0.610686 21.035562 -3.832839 0.633897 -10.140911 -14.276374 -4.762150 -28.528332 10.331516 -13.856629 84.598402 -82.087385 94.325247 -38.603720 11.868158 19.944069 -30.535016 -11.630642 1.022685 5.374205 2.891035 34.349698 80.734072 74.934190 -98.787218 -40.164354 -8.762411 -0.869912 -34.605287 17.815780 -1.534682 4.447943 7.388585 -17.767277 
11.277100 88.766533 -102.657097 95.603394 -30.520499 82.779803 129.190542 2.895698 158.878164 -32.779191 -5.665275 -7.470816 81.759960 7.170055 8.258182 21.454553 0.003096 -0.000001 150.099622 8.579694 -179.120454 -62.113085 -1.048527 15.110098 72.829009 -8.340558 7.955464 21.454553 -0.003106 -0.000015 15.571687 -1.502830 0.519945 21.127903 -3.075237 0.756824 20.809339 -3.070491 0.775414 -9.624866 -13.791488 -4.774693 -28.844917 10.182951 -13.643583 90.313542 -83.424217 88.524504 -35.834430 17.253587 20.226900 -30.784195 -10.595624 0.960166 8.606072 6.542251 28.787031 84.103425 75.448599 -95.418917 -39.783011 -13.118592 -1.662653 -36.091669 17.508871 -1.549926 4.544943 5.516929 -17.504510 
11.603380 89.703972 -100.805298 94.196409 -27.543240 85.150568 135.898730 4.764798 160.163414 -27.646960 -5.243704 -7.090130 80.408860 6.998879 8.206512 21.454553 0.003091 -0.000001 146.659475 7.641694 177.812883 -65.785582 -0.982898 15.407986 72.869007 -8.725875 7.392978 21.454558 -0.003100 -0.000021 15.375859 -1.028690 0.521688 20.734480 -2.134172 0.850616 20.416182 -2.128883 0.863510 -9.052601 -13.598889 -4.833987 -29.315527 10.178620 -13.645198 98.259299 -84.522204 80.496348 -33.370368 22.209892 21.877600 -30.652574 -10.238180 0.934269 10.515201 8.810356 28.048986 87.731881 76.221974 -91.764261 -39.107361 -17.962190 -2.864558 -37.838760 17.558760 -1.596253 4.366067 3.300142 -17.766949 
11.895710 90.359688 -98.763611 92.773114 -24.727549 87.589554 142.172150 6.190509 162.597544 -23.308833 -5.073600 -7.155793 79.519282 7.054725 7.995881 21.454551 0.003088 -0.000002 143.462072 6.206809 175.209174 -67.694005 -1.500125 15.321079 73.182137 -8.614427 7.576693 21.454558 -0.003101 -0.000028 15.068659 -0.512416 0.538209 20.120631 -1.110625 0.979076 19.802522 -1.104569 0.985778 -8.920452 -12.969989 -4.883174 -29.523769 9.692552 -13.297315 111.981279 -85.188264 66.708019 -30.780090 25.980006 24.383678 -30.910940 -10.313268 0.944208 11.423127 10.413303 32.945940 95.942233 77.580629 -83.467814 -38.117725 -22.325146 -5.031616 -39.918617 17.799482 -1.665925 4.335533 1.310093 -18.343890 
12.212320 90.713783 -96.449783 91.768318 -21.746407 89.992373 148.461825 7.501008 165.398413 -19.664186 -4.969235 -7.343907 79.093324 7.144914 7.744998 21.454551 0.003092 0.000001 141.031727 5.122691 172.633769 -67.648625 -1.593798 14.752761 73.677196 -8.585713 6.336253 21.454558 -0.003109 -0.000019 14.714207 -0.064414 0.452954 19.414818 -0.204002 0.888622 19.096758 -0.198479 0.889854 -8.673947 -12.197982 -4.944289 -29.559399 9.241387 -12.908008 125.399118 -85.750655 53.214158 -27.896537 29.176154 27.145407 -32.018376 -10.342088 0.968193 11.511795 10.837236 39.505370 109.654773 78.804742 -69.640021 -36.579737 -26.384490 -7.497001 -42.303941 18.113059 -1.751971 4.159122 -0.125464 -20.552020 
